<svg width="221" height="47" viewBox="0 0 221 47" fill="none" xmlns="http://www.w3.org/2000/svg">
<path d="M23.2014 8.71391C22.3328 8.00811 21.4641 7.49233 20.5954 7.16658C19.7267 6.81368 18.8852 6.63723 18.0708 6.63723C17.0393 6.63723 16.1977 6.88154 15.5462 7.37017C14.8947 7.8588 14.569 8.49674 14.569 9.28398C14.569 9.8269 14.7318 10.2748 15.0576 10.6277C15.3833 10.9806 15.8041 11.2928 16.3199 11.5643C16.8628 11.8086 17.46 12.0257 18.1115 12.2158C18.7902 12.4058 19.4553 12.6094 20.1068 12.8265C22.7128 13.6952 24.613 14.8625 25.8075 16.3284C27.029 17.7671 27.6398 19.6538 27.6398 21.9884C27.6398 23.5628 27.3684 24.988 26.8254 26.2639C26.3097 27.5398 25.536 28.6392 24.5044 29.5621C23.5 30.458 22.2513 31.1502 20.7583 31.6388C19.2924 32.1546 17.6229 32.4125 15.7498 32.4125C11.8679 32.4125 8.27106 31.2588 4.95923 28.9513L8.37964 22.5177C9.57407 23.5764 10.7549 24.3637 11.9222 24.8794C13.0895 25.3952 14.2432 25.6531 15.3833 25.6531C16.6864 25.6531 17.65 25.3545 18.2744 24.7573C18.9259 24.1601 19.2517 23.4814 19.2517 22.7213C19.2517 22.2598 19.1702 21.8662 19.0074 21.5405C18.8445 21.1876 18.573 20.8754 18.193 20.6039C17.8129 20.3053 17.3107 20.0338 16.6864 19.7895C16.0891 19.5452 15.3562 19.2738 14.4875 18.9751C13.456 18.6494 12.438 18.2965 11.4336 17.9164C10.4563 17.5093 9.57407 16.9799 8.78683 16.3284C8.02674 15.6769 7.40238 14.8625 6.91375 13.8852C6.45227 12.8808 6.22152 11.6185 6.22152 10.0984C6.22152 8.57818 6.46584 7.2073 6.95447 5.98572C7.47025 4.737 8.17605 3.6783 9.07187 2.80962C9.99484 1.9138 11.1078 1.22158 12.4108 0.732946C13.741 0.244315 15.2205 0 16.8492 0C18.3694 0 19.9575 0.217169 21.6134 0.651506C23.2693 1.0587 24.8573 1.66949 26.3775 2.48387L23.2014 8.71391Z" fill="white"/>
<path d="M8.98572 44.5289H10.4857V43.0289V36.8941H12.5283C15.3641 36.8941 17.7703 36.154 19.5016 34.4509C21.2472 32.7544 22.0296 30.4306 22.0296 27.6981C22.0296 24.9656 21.2471 22.6418 19.5016 20.9453C17.7703 19.2423 15.3641 18.5022 12.5283 18.5022H3H1.5V20.0022V43.0289V44.5289H3H8.98572ZM10.9708 29.0688H10.4857V26.3274H10.9708C11.8861 26.3274 12.2926 26.5311 12.4597 26.6766C12.587 26.7874 12.769 27.0308 12.769 27.6981C12.769 28.3654 12.587 28.6089 12.4597 28.7197C12.2926 28.8652 11.8861 29.0688 10.9708 29.0688Z" fill="white" stroke="#346042" stroke-width="3"/>
<path d="M53.7323 17.7944C53.3056 17.4477 52.879 17.1944 52.4523 17.0344C52.0256 16.8611 51.6123 16.7744 51.2123 16.7744C50.7056 16.7744 50.2923 16.8944 49.9723 17.1344C49.6523 17.3744 49.4923 17.6877 49.4923 18.0744C49.4923 18.3411 49.5723 18.5611 49.7323 18.7344C49.8923 18.9077 50.099 19.0611 50.3523 19.1944C50.619 19.3144 50.9123 19.4211 51.2323 19.5144C51.5656 19.6077 51.8923 19.7077 52.2123 19.8144C53.4923 20.2411 54.4256 20.8144 55.0123 21.5344C55.6123 22.2411 55.9123 23.1677 55.9123 24.3144C55.9123 25.0877 55.779 25.7877 55.5123 26.4144C55.259 27.0411 54.879 27.5811 54.3723 28.0344C53.879 28.4744 53.2656 28.8144 52.5323 29.0544C51.8123 29.3077 50.9923 29.4344 50.0723 29.4344C48.1656 29.4344 46.399 28.8677 44.7723 27.7344L46.4523 24.5744C47.039 25.0944 47.619 25.4811 48.1923 25.7344C48.7656 25.9877 49.3323 26.1144 49.8923 26.1144C50.5323 26.1144 51.0056 25.9677 51.3123 25.6744C51.6323 25.3811 51.7923 25.0477 51.7923 24.6744C51.7923 24.4477 51.7523 24.2544 51.6723 24.0944C51.5923 23.9211 51.459 23.7677 51.2723 23.6344C51.0856 23.4877 50.839 23.3544 50.5323 23.2344C50.239 23.1144 49.879 22.9811 49.4523 22.8344C48.9456 22.6744 48.4456 22.5011 47.9523 22.3144C47.4723 22.1144 47.039 21.8544 46.6523 21.5344C46.279 21.2144 45.9723 20.8144 45.7323 20.3344C45.5056 19.8411 45.3923 19.2211 45.3923 18.4744C45.3923 17.7277 45.5123 17.0544 45.7523 16.4544C46.0056 15.8411 46.3523 15.3211 46.7923 14.8944C47.2456 14.4544 47.7923 14.1144 48.4323 13.8744C49.0856 13.6344 49.8123 13.5144 50.6123 13.5144C51.359 13.5144 52.139 13.6211 52.9523 13.8344C53.7656 14.0344 54.5456 14.3344 55.2923 14.7344L53.7323 17.7944ZM61.402 23.8544C61.402 24.1877 61.462 24.5011 61.582 24.7944C61.702 25.0744 61.862 25.3211 62.062 25.5344C62.2753 25.7477 62.522 25.9144 62.802 26.0344C63.0953 26.1544 63.4087 26.2144 63.742 26.2144C64.062 26.2144 64.362 26.1544 64.642 26.0344C64.9353 25.9144 65.182 25.7477 65.382 25.5344C65.5953 25.3211 65.762 25.0744 65.882 24.7944C66.0153 24.5144 66.082 24.2144 66.082 23.8944C66.082 23.5744 66.0153 23.2744 65.882 22.9944C65.762 22.7011 65.5953 22.4477 65.382 22.2344C65.182 22.0211 64.9353 21.8544 64.642 21.7344C64.362 21.6144 64.062 21.5544 63.742 21.5544C63.4087 21.5544 63.0953 21.6144 62.802 21.7344C62.522 21.8544 62.2753 22.0211 62.062 22.2344C61.862 22.4477 61.702 22.6944 61.582 22.9744C61.462 23.2411 61.402 23.5344 61.402 23.8544ZM65.962 18.7544H69.602V29.0144H65.962V27.8744C65.1887 28.8477 64.142 29.3344 62.822 29.3344C62.0753 29.3344 61.3887 29.2011 60.762 28.9344C60.1353 28.6544 59.5887 28.2677 59.122 27.7744C58.6553 27.2811 58.2887 26.7011 58.022 26.0344C57.7687 25.3677 57.642 24.6411 57.642 23.8544C57.642 23.1211 57.7687 22.4277 58.022 21.7744C58.2753 21.1077 58.6287 20.5277 59.082 20.0344C59.5353 19.5411 60.0753 19.1544 60.702 18.8744C61.3287 18.5811 62.022 18.4344 62.782 18.4344C64.062 18.4344 65.122 18.8811 65.962 19.7744V18.7544ZM75.9854 21.7744V29.0144H72.3654V21.7744H71.0654V18.7544H72.3654V17.2144C72.3654 16.3611 72.4454 15.6811 72.6054 15.1744C72.7388 14.7477 72.9521 14.3544 73.2454 13.9944C73.5388 13.6211 73.8788 13.3011 74.2654 13.0344C74.6654 12.7677 75.0921 12.5611 75.5454 12.4144C75.9988 12.2677 76.4454 12.1944 76.8854 12.1944C77.1921 12.1944 77.4721 12.2277 77.7254 12.2944C77.9921 12.3611 78.2588 12.4544 78.5254 12.5744V15.7344C78.2854 15.6144 78.0588 15.5277 77.8454 15.4744C77.6454 15.4077 77.4321 15.3744 77.2054 15.3744C77.0588 15.3744 76.9054 15.4011 76.7454 15.4544C76.5988 15.4944 76.4588 15.5877 76.3254 15.7344C76.1921 15.8811 76.0988 16.0944 76.0454 16.3744C76.0054 16.6411 75.9854 17.0077 75.9854 17.4744V18.7544H78.5254V21.7744H75.9854ZM87.5928 22.3944C87.4728 21.8877 87.2261 21.4811 86.8528 21.1744C86.4795 20.8677 86.0261 20.7144 85.4928 20.7144C84.9328 20.7144 84.4728 20.8611 84.1128 21.1544C83.7661 21.4477 83.5461 21.8611 83.4528 22.3944H87.5928ZM83.3528 24.4944C83.3528 26.0544 84.0861 26.8344 85.5528 26.8344C86.3395 26.8344 86.9328 26.5144 87.3328 25.8744H90.8328C90.1261 28.2211 88.3595 29.3944 85.5328 29.3944C84.6661 29.3944 83.8728 29.2677 83.1528 29.0144C82.4328 28.7477 81.8128 28.3744 81.2928 27.8944C80.7861 27.4144 80.3928 26.8411 80.1128 26.1744C79.8328 25.5077 79.6928 24.7611 79.6928 23.9344C79.6928 23.0811 79.8261 22.3144 80.0928 21.6344C80.3594 20.9411 80.7394 20.3544 81.2328 19.8744C81.7261 19.3944 82.3194 19.0277 83.0128 18.7744C83.7194 18.5077 84.5128 18.3744 85.3928 18.3744C86.2595 18.3744 87.0395 18.5077 87.7328 18.7744C88.4261 19.0277 89.0128 19.4011 89.4928 19.8944C89.9728 20.3877 90.3395 20.9944 90.5928 21.7144C90.8461 22.4211 90.9728 23.2211 90.9728 24.1144V24.4944H83.3528ZM93.042 18.7544H96.662V20.4344C97.0487 19.8211 97.522 19.3544 98.082 19.0344C98.642 18.7011 99.2953 18.5344 100.042 18.5344C100.135 18.5344 100.235 18.5344 100.342 18.5344C100.462 18.5344 100.595 18.5477 100.742 18.5744V22.0344C100.262 21.7944 99.742 21.6744 99.182 21.6744C98.342 21.6744 97.7087 21.9277 97.282 22.4344C96.8687 22.9277 96.662 23.6544 96.662 24.6144V29.0144H93.042V18.7544ZM106.599 20.8544H107.899C109.339 20.8544 110.059 20.2277 110.059 18.9744C110.059 17.7211 109.339 17.0944 107.899 17.0944H106.599V20.8544ZM106.599 29.0144H102.679V13.9344H108.919C110.612 13.9344 111.906 14.3744 112.799 15.2544C113.706 16.1344 114.159 17.3744 114.159 18.9744C114.159 20.5744 113.706 21.8144 112.799 22.6944C111.906 23.5744 110.612 24.0144 108.919 24.0144H106.599V29.0144ZM119.019 23.8544C119.019 24.1877 119.079 24.5011 119.199 24.7944C119.319 25.0744 119.479 25.3211 119.679 25.5344C119.893 25.7477 120.139 25.9144 120.419 26.0344C120.713 26.1544 121.026 26.2144 121.359 26.2144C121.679 26.2144 121.979 26.1544 122.259 26.0344C122.553 25.9144 122.799 25.7477 122.999 25.5344C123.213 25.3211 123.379 25.0744 123.499 24.7944C123.633 24.5144 123.699 24.2144 123.699 23.8944C123.699 23.5744 123.633 23.2744 123.499 22.9944C123.379 22.7011 123.213 22.4477 122.999 22.2344C122.799 22.0211 122.553 21.8544 122.259 21.7344C121.979 21.6144 121.679 21.5544 121.359 21.5544C121.026 21.5544 120.713 21.6144 120.419 21.7344C120.139 21.8544 119.893 22.0211 119.679 22.2344C119.479 22.4477 119.319 22.6944 119.199 22.9744C119.079 23.2411 119.019 23.5344 119.019 23.8544ZM123.579 18.7544H127.219V29.0144H123.579V27.8744C122.806 28.8477 121.759 29.3344 120.439 29.3344C119.693 29.3344 119.006 29.2011 118.379 28.9344C117.753 28.6544 117.206 28.2677 116.739 27.7744C116.273 27.2811 115.906 26.7011 115.639 26.0344C115.386 25.3677 115.259 24.6411 115.259 23.8544C115.259 23.1211 115.386 22.4277 115.639 21.7744C115.893 21.1077 116.246 20.5277 116.699 20.0344C117.153 19.5411 117.693 19.1544 118.319 18.8744C118.946 18.5811 119.639 18.4344 120.399 18.4344C121.679 18.4344 122.739 18.8811 123.579 19.7744V18.7544ZM133.598 27.6144L128.638 18.7544H132.838L135.578 24.0144L138.238 18.7544H142.398L134.158 34.1344H130.098L133.598 27.6144Z" fill="white"/>
</svg>
