<svg width="107" height="50" viewBox="0 0 107 50" fill="none" xmlns="http://www.w3.org/2000/svg">
<path d="M18.139 16.0405C17.4564 15.4858 16.7737 15.0805 16.091 14.8245C15.4084 14.5472 14.747 14.4085 14.107 14.4085C13.2964 14.4085 12.635 14.6005 12.123 14.9845C11.611 15.3685 11.355 15.8698 11.355 16.4885C11.355 16.9152 11.483 17.2672 11.739 17.5445C11.995 17.8218 12.3257 18.0672 12.731 18.2805C13.1577 18.4725 13.627 18.6432 14.139 18.7925C14.6724 18.9418 15.195 19.1018 15.707 19.2725C17.755 19.9552 19.2484 20.8725 20.187 22.0245C21.147 23.1552 21.627 24.6378 21.627 26.4725C21.627 27.7098 21.4137 28.8298 20.987 29.8325C20.5817 30.8352 19.9737 31.6992 19.163 32.4245C18.3737 33.1285 17.3924 33.6725 16.219 34.0565C15.067 34.4618 13.755 34.6645 12.283 34.6645C9.23237 34.6645 6.4057 33.7578 3.80304 31.9445L6.49104 26.8885C7.4297 27.7205 8.3577 28.3392 9.27504 28.7445C10.1924 29.1498 11.099 29.3525 11.995 29.3525C13.019 29.3525 13.7764 29.1178 14.267 28.6485C14.779 28.1792 15.035 27.6458 15.035 27.0485C15.035 26.6858 14.971 26.3765 14.843 26.1205C14.715 25.8432 14.5017 25.5978 14.203 25.3845C13.9044 25.1498 13.5097 24.9365 13.019 24.7445C12.5497 24.5525 11.9737 24.3392 11.291 24.1045C10.4804 23.8485 9.68037 23.5712 8.89104 23.2725C8.12304 22.9525 7.4297 22.5365 6.81104 22.0245C6.2137 21.5125 5.72304 20.8725 5.33904 20.1045C4.97637 19.3152 4.79504 18.3232 4.79504 17.1285C4.79504 15.9338 4.98704 14.8565 5.37104 13.8965C5.77637 12.9152 6.33104 12.0832 7.03504 11.4005C7.76037 10.6965 8.63504 10.1525 9.65904 9.76849C10.7044 9.38449 11.867 9.19249 13.147 9.19249C14.3417 9.19249 15.5897 9.36316 16.891 9.70449C18.1924 10.0245 19.4404 10.5045 20.635 11.1445L18.139 16.0405Z" fill="white"/>
<path d="M6.96719 33.2155H8.52719C10.2552 33.2155 11.1192 32.4635 11.1192 30.9595C11.1192 29.4555 10.2552 28.7035 8.52719 28.7035H6.96719V33.2155ZM6.96719 43.0075H2.26319V24.9115H9.75119C11.7832 24.9115 13.3352 25.4395 14.4072 26.4955C15.4952 27.5515 16.0392 29.0395 16.0392 30.9595C16.0392 32.8795 15.4952 34.3675 14.4072 35.4235C13.3352 36.4795 11.7832 37.0075 9.75119 37.0075H6.96719V43.0075Z" fill="white"/>
<path d="M6.96719 33.2155H5.96719V34.2155H6.96719V33.2155ZM6.96719 28.7035V27.7035H5.96719V28.7035H6.96719ZM6.96719 43.0075V44.0075H7.96719V43.0075H6.96719ZM2.26319 43.0075H1.26319V44.0075H2.26319V43.0075ZM2.26319 24.9115V23.9115H1.26319V24.9115H2.26319ZM14.4072 26.4955L13.7054 27.2079L13.7107 27.2131L14.4072 26.4955ZM14.4072 35.4235L13.7107 34.7059L13.7054 34.7111L14.4072 35.4235ZM6.96719 37.0075V36.0075H5.96719V37.0075H6.96719ZM6.96719 34.2155H8.52719V32.2155H6.96719V34.2155ZM8.52719 34.2155C9.51389 34.2155 10.4407 34.0038 11.1277 33.4058C11.8413 32.7847 12.1192 31.9046 12.1192 30.9595H10.1192C10.1192 31.5184 9.96508 31.7663 9.81466 31.8972C9.63771 32.0512 9.26848 32.2155 8.52719 32.2155V34.2155ZM12.1192 30.9595C12.1192 30.0144 11.8413 29.1343 11.1277 28.5132C10.4407 27.9152 9.51389 27.7035 8.52719 27.7035V29.7035C9.26848 29.7035 9.63771 29.8678 9.81466 30.0218C9.96508 30.1527 10.1192 30.4006 10.1192 30.9595H12.1192ZM8.52719 27.7035H6.96719V29.7035H8.52719V27.7035ZM5.96719 28.7035V33.2155H7.96719V28.7035H5.96719ZM6.96719 42.0075H2.26319V44.0075H6.96719V42.0075ZM3.26319 43.0075V24.9115H1.26319V43.0075H3.26319ZM2.26319 25.9115H9.75119V23.9115H2.26319V25.9115ZM9.75119 25.9115C11.615 25.9115 12.8784 26.3933 13.7054 27.2079L15.109 25.7831C13.7919 24.4857 11.9514 23.9115 9.75119 23.9115V25.9115ZM13.7107 27.2131C14.5561 28.0336 15.0392 29.2338 15.0392 30.9595H17.0392C17.0392 28.8452 16.4342 27.0694 15.1037 25.7779L13.7107 27.2131ZM15.0392 30.9595C15.0392 32.6852 14.5561 33.8854 13.7107 34.7059L15.1037 36.1411C16.4342 34.8496 17.0392 33.0738 17.0392 30.9595H15.0392ZM13.7054 34.7111C12.8784 35.5257 11.615 36.0075 9.75119 36.0075V38.0075C11.9514 38.0075 13.7919 37.4333 15.109 36.1359L13.7054 34.7111ZM9.75119 36.0075H6.96719V38.0075H9.75119V36.0075ZM5.96719 37.0075V43.0075H7.96719V37.0075H5.96719Z" fill="#346042"/>
<path d="M35.1807 22.524C34.8394 22.2467 34.4981 22.044 34.1567 21.916C33.8154 21.7773 33.4847 21.708 33.1647 21.708C32.7594 21.708 32.4287 21.804 32.1727 21.996C31.9167 22.188 31.7887 22.4387 31.7887 22.748C31.7887 22.9613 31.8527 23.1373 31.9807 23.276C32.1087 23.4147 32.2741 23.5373 32.4767 23.644C32.6901 23.74 32.9247 23.8253 33.1807 23.9C33.4474 23.9747 33.7087 24.0547 33.9647 24.14C34.9887 24.4813 35.7354 24.94 36.2047 25.516C36.6847 26.0813 36.9247 26.8227 36.9247 27.74C36.9247 28.3587 36.8181 28.9187 36.6047 29.42C36.4021 29.9213 36.0981 30.3533 35.6927 30.716C35.2981 31.068 34.8074 31.34 34.2207 31.532C33.6447 31.7347 32.9887 31.836 32.2527 31.836C30.7274 31.836 29.3141 31.3827 28.0127 30.476L29.3567 27.948C29.8261 28.364 30.2901 28.6733 30.7487 28.876C31.2074 29.0787 31.6607 29.18 32.1087 29.18C32.6207 29.18 32.9994 29.0627 33.2447 28.828C33.5007 28.5933 33.6287 28.3267 33.6287 28.028C33.6287 27.8467 33.5967 27.692 33.5327 27.564C33.4687 27.4253 33.3621 27.3027 33.2127 27.196C33.0634 27.0787 32.8661 26.972 32.6207 26.876C32.3861 26.78 32.0981 26.6733 31.7567 26.556C31.3514 26.428 30.9514 26.2893 30.5567 26.14C30.1727 25.98 29.8261 25.772 29.5167 25.516C29.2181 25.26 28.9727 24.94 28.7807 24.556C28.5994 24.1613 28.5087 23.6653 28.5087 23.068C28.5087 22.4707 28.6047 21.932 28.7967 21.452C28.9994 20.9613 29.2767 20.5453 29.6287 20.204C29.9914 19.852 30.4287 19.58 30.9407 19.388C31.4634 19.196 32.0447 19.1 32.6847 19.1C33.2821 19.1 33.9061 19.1853 34.5567 19.356C35.2074 19.516 35.8314 19.756 36.4287 20.076L35.1807 22.524ZM41.3165 27.372C41.3165 27.6387 41.3645 27.8893 41.4605 28.124C41.5565 28.348 41.6845 28.5453 41.8445 28.716C42.0151 28.8867 42.2125 29.02 42.4365 29.116C42.6711 29.212 42.9218 29.26 43.1885 29.26C43.4445 29.26 43.6845 29.212 43.9085 29.116C44.1431 29.02 44.3405 28.8867 44.5005 28.716C44.6711 28.5453 44.8045 28.348 44.9005 28.124C45.0071 27.9 45.0605 27.66 45.0605 27.404C45.0605 27.148 45.0071 26.908 44.9005 26.684C44.8045 26.4493 44.6711 26.2467 44.5005 26.076C44.3405 25.9053 44.1431 25.772 43.9085 25.676C43.6845 25.58 43.4445 25.532 43.1885 25.532C42.9218 25.532 42.6711 25.58 42.4365 25.676C42.2125 25.772 42.0151 25.9053 41.8445 26.076C41.6845 26.2467 41.5565 26.444 41.4605 26.668C41.3645 26.8813 41.3165 27.116 41.3165 27.372ZM44.9645 23.292H47.8765V31.5H44.9645V30.588C44.3458 31.3667 43.5085 31.756 42.4525 31.756C41.8551 31.756 41.3058 31.6493 40.8045 31.436C40.3031 31.212 39.8658 30.9027 39.4925 30.508C39.1191 30.1133 38.8258 29.6493 38.6125 29.116C38.4098 28.5827 38.3085 28.0013 38.3085 27.372C38.3085 26.7853 38.4098 26.2307 38.6125 25.708C38.8151 25.1747 39.0978 24.7107 39.4605 24.316C39.8231 23.9213 40.2551 23.612 40.7565 23.388C41.2578 23.1533 41.8125 23.036 42.4205 23.036C43.4445 23.036 44.2925 23.3933 44.9645 24.108V23.292ZM52.9832 25.708V31.5H50.0872V25.708H49.0472V23.292H50.0872V22.06C50.0872 21.3773 50.1512 20.8333 50.2792 20.428C50.3859 20.0867 50.5566 19.772 50.7912 19.484C51.0259 19.1853 51.2979 18.9293 51.6072 18.716C51.9272 18.5027 52.2686 18.3373 52.6312 18.22C52.9939 18.1027 53.3512 18.044 53.7032 18.044C53.9486 18.044 54.1726 18.0707 54.3752 18.124C54.5886 18.1773 54.8019 18.252 55.0152 18.348V20.876C54.8232 20.78 54.6419 20.7107 54.4712 20.668C54.3112 20.6147 54.1406 20.588 53.9592 20.588C53.8419 20.588 53.7192 20.6093 53.5912 20.652C53.4739 20.684 53.3619 20.7587 53.2552 20.876C53.1486 20.9933 53.0739 21.164 53.0312 21.388C52.9992 21.6013 52.9832 21.8947 52.9832 22.268V23.292H55.0152V25.708H52.9832ZM62.2691 26.204C62.1731 25.7987 61.9758 25.4733 61.6771 25.228C61.3784 24.9827 61.0158 24.86 60.5891 24.86C60.1411 24.86 59.7731 24.9773 59.4851 25.212C59.2078 25.4467 59.0318 25.7773 58.9571 26.204H62.2691ZM58.8771 27.884C58.8771 29.132 59.4638 29.756 60.6371 29.756C61.2664 29.756 61.7411 29.5 62.0611 28.988H64.8611C64.2958 30.8653 62.8824 31.804 60.6211 31.804C59.9278 31.804 59.2931 31.7027 58.7171 31.5C58.1411 31.2867 57.6451 30.988 57.2291 30.604C56.8238 30.22 56.5091 29.7613 56.2851 29.228C56.0611 28.6947 55.9491 28.0973 55.9491 27.436C55.9491 26.7533 56.0558 26.14 56.2691 25.596C56.4824 25.0413 56.7864 24.572 57.1811 24.188C57.5758 23.804 58.0504 23.5107 58.6051 23.308C59.1704 23.0947 59.8051 22.988 60.5091 22.988C61.2024 22.988 61.8264 23.0947 62.3811 23.308C62.9358 23.5107 63.4051 23.8093 63.7891 24.204C64.1731 24.5987 64.4664 25.084 64.6691 25.66C64.8718 26.2253 64.9731 26.8653 64.9731 27.58V27.884H58.8771ZM66.6285 23.292H69.5245V24.636C69.8338 24.1453 70.2125 23.772 70.6605 23.516C71.1085 23.2493 71.6311 23.116 72.2285 23.116C72.3031 23.116 72.3831 23.116 72.4685 23.116C72.5645 23.116 72.6711 23.1267 72.7885 23.148V25.916C72.4045 25.724 71.9885 25.628 71.5405 25.628C70.8685 25.628 70.3618 25.8307 70.0205 26.236C69.6898 26.6307 69.5245 27.212 69.5245 27.98V31.5H66.6285V23.292ZM77.474 24.972H78.514C79.666 24.972 80.242 24.4707 80.242 23.468C80.242 22.4653 79.666 21.964 78.514 21.964H77.474V24.972ZM77.474 31.5H74.338V19.436H79.33C80.6846 19.436 81.7193 19.788 82.434 20.492C83.1593 21.196 83.522 22.188 83.522 23.468C83.522 24.748 83.1593 25.74 82.434 26.444C81.7193 27.148 80.6846 27.5 79.33 27.5H77.474V31.5ZM87.4102 27.372C87.4102 27.6387 87.4582 27.8893 87.5542 28.124C87.6502 28.348 87.7782 28.5453 87.9382 28.716C88.1089 28.8867 88.3062 29.02 88.5302 29.116C88.7649 29.212 89.0156 29.26 89.2822 29.26C89.5382 29.26 89.7782 29.212 90.0022 29.116C90.2369 29.02 90.4342 28.8867 90.5942 28.716C90.7649 28.5453 90.8982 28.348 90.9942 28.124C91.1009 27.9 91.1542 27.66 91.1542 27.404C91.1542 27.148 91.1009 26.908 90.9942 26.684C90.8982 26.4493 90.7649 26.2467 90.5942 26.076C90.4342 25.9053 90.2369 25.772 90.0022 25.676C89.7782 25.58 89.5382 25.532 89.2822 25.532C89.0156 25.532 88.7649 25.58 88.5302 25.676C88.3062 25.772 88.1089 25.9053 87.9382 26.076C87.7782 26.2467 87.6502 26.444 87.5542 26.668C87.4582 26.8813 87.4102 27.116 87.4102 27.372ZM91.0582 23.292H93.9702V31.5H91.0582V30.588C90.4396 31.3667 89.6022 31.756 88.5462 31.756C87.9489 31.756 87.3996 31.6493 86.8982 31.436C86.3969 31.212 85.9596 30.9027 85.5862 30.508C85.2129 30.1133 84.9196 29.6493 84.7062 29.116C84.5036 28.5827 84.4022 28.0013 84.4022 27.372C84.4022 26.7853 84.5036 26.2307 84.7062 25.708C84.9089 25.1747 85.1916 24.7107 85.5542 24.316C85.9169 23.9213 86.3489 23.612 86.8502 23.388C87.3516 23.1533 87.9062 23.036 88.5142 23.036C89.5382 23.036 90.3862 23.3933 91.0582 24.108V23.292ZM99.0732 30.38L95.1052 23.292H98.4652L100.657 27.5L102.785 23.292H106.113L99.5212 35.596H96.2732L99.0732 30.38Z" fill="white"/>
</svg>
